<svg version="1.1" xmlns="http://www.w3.org/2000/svg" viewBox="0 0 1272.53974727478 951.6263441950632" width="3817.61924182434" height="2854.8790325851896">
  <!-- svg-source:excalidraw -->
  
  <defs>
    <style class="style-fonts">
      @font-face {
        font-family: "Virgil";
        src: url("https://excalidraw.com/Virgil.woff2");
      }
      @font-face {
        font-family: "Cascadia";
        src: url("https://excalidraw.com/Cascadia.woff2");
      }
    </style>
    
  </defs>
  <rect x="0" y="0" width="1272.53974727478" height="951.6263441950632" fill="#ffffff"></rect><g transform="translate(480.6911755485926 10) rotate(0 190.95992414697957 26.454615176134666)"><text x="0" y="0" font-family="Virgil, Segoe UI Emoji" font-size="42.32738428181548px" fill="#1e1e1e" text-anchor="start" style="white-space: pre;" direction="ltr" dominant-baseline="text-before-edge">Modelo Conceptual</text></g><g stroke-linecap="round" transform="translate(10 152.31621589990937) rotate(0 159.09533227429438 88.00254365106957)"><path d="M44 0 M44 0 C136.65 1.08, 228.59 2.8, 274.19 0 M44 0 C136.53 0.18, 227.58 0.82, 274.19 0 M274.19 0 C301.87 0.29, 318.51 13.91, 318.19 44 M274.19 0 C305.21 0.82, 317.11 14.91, 318.19 44 M318.19 44 C317.42 66.87, 317.41 87.41, 318.19 132 M318.19 44 C318.47 69, 317.2 92.48, 318.19 132 M318.19 132 C316.76 159.81, 303.13 174.61, 274.19 176.01 M318.19 132 C316.13 161.53, 301.64 176.6, 274.19 176.01 M274.19 176.01 C196.21 173.8, 116.6 175.55, 44 176.01 M274.19 176.01 C226.52 175.24, 178.13 174.19, 44 176.01 M44 176.01 C13.32 174.61, -0.79 160.69, 0 132 M44 176.01 C15.85 176.75, 0.34 160.49, 0 132 M0 132 C0.75 102.95, -0.88 78.09, 0 44 M0 132 C-0.64 107.1, -0.45 81.58, 0 44 M0 44 C1.86 14.1, 12.73 -1.61, 44 0 M0 44 C-1.85 15.13, 13.09 1.4, 44 0" stroke="#000000" stroke-width="1" fill="none"></path></g><g stroke-linecap="round"><g transform="translate(11.786087831842451 220.22232858450207) rotate(0 158.7578296745337 -0.9981140706468068)"><path d="M-0.51 0.35 C52.68 0.14, 265.22 -0.43, 318.03 -0.84 M1.42 -0.52 C54.61 -1.07, 264.57 -2.29, 317.45 -2.34" stroke="#000000" stroke-width="1" fill="none"></path></g></g><mask></mask><g transform="translate(42.6763049282672 167.76178538543536) rotate(0 124.0833668867449 21.343644306813985)"><text x="0" y="0" font-family="Virgil, Segoe UI Emoji" font-size="34.14983089090238px" fill="#1e1e1e" text-anchor="start" style="white-space: pre;" direction="ltr" dominant-baseline="text-before-edge">mesa_votacion</text></g><g stroke-linecap="round" transform="translate(942.5638346375008 444.41024666497015) rotate(0 159.09533227429438 88.00254365106957)"><path d="M44 0 M44 0 C126.42 -2.64, 207.75 0.24, 274.19 0 M44 0 C116.75 0.71, 189.08 2.03, 274.19 0 M274.19 0 C301.91 -1.04, 318.47 13.63, 318.19 44 M274.19 0 C305.77 1.44, 317.49 15.76, 318.19 44 M318.19 44 C318.19 79.49, 318.12 112.05, 318.19 132 M318.19 44 C319.27 70.17, 317.82 95.64, 318.19 132 M318.19 132 C318.57 160.19, 303.37 175.45, 274.19 176.01 M318.19 132 C316.03 162.91, 304.53 177.89, 274.19 176.01 M274.19 176.01 C189.79 175.75, 104.83 178.47, 44 176.01 M274.19 176.01 C217.8 174.43, 161.94 174.97, 44 176.01 M44 176.01 C13.29 175.33, -1.11 160.08, 0 132 M44 176.01 C15.44 177.62, -1.48 163.45, 0 132 M0 132 C-1.27 107.31, -1.41 83.25, 0 44 M0 132 C-0.8 99.65, -0.81 67.39, 0 44 M0 44 C0.37 14.3, 14.5 1.83, 44 0 M0 44 C-1.21 16.12, 13.53 -0.56, 44 0" stroke="#000000" stroke-width="1" fill="none"></path></g><g stroke-linecap="round"><g transform="translate(944.3499224693433 512.3163593495638) rotate(0 158.51128835325608 -0.6445147687350072)"><path d="M-1.17 0.57 C51.76 0.15, 264.99 -1.28, 318.19 -1.86 M0.42 -0.18 C53.22 -0.44, 264.83 0.08, 317.7 -0.23" stroke="#000000" stroke-width="1" fill="none"></path></g></g><mask></mask><g transform="translate(970.6946850203121 460.76490705958895) rotate(0 131.30239868164062 21.343644306813985)"><text x="0" y="0" font-family="Virgil, Segoe UI Emoji" font-size="34.14983089090238px" fill="#1e1e1e" text-anchor="start" style="white-space: pre;" direction="ltr" dominant-baseline="text-before-edge">partido_politico</text></g><g stroke-linecap="round" transform="translate(18.184755203550594 765.6212568929241) rotate(0 159.09533227429438 88.00254365106957)"><path d="M44 0 M44 0 C109.1 1.06, 171.79 -0.16, 274.19 0 M44 0 C122.29 -1.33, 201.07 -1.62, 274.19 0 M274.19 0 C303.12 1, 316.41 13.41, 318.19 44 M274.19 0 C302.16 -0.75, 316.97 16.83, 318.19 44 M318.19 44 C316.8 65.95, 318.48 85.69, 318.19 132 M318.19 44 C316.36 75.35, 317.94 106.62, 318.19 132 M318.19 132 C319.28 160.58, 304.97 175.04, 274.19 176.01 M318.19 132 C319.64 161.48, 305.33 174.49, 274.19 176.01 M274.19 176.01 C222.6 178.91, 171.09 176.82, 44 176.01 M274.19 176.01 C186.16 177.17, 96.89 177.38, 44 176.01 M44 176.01 C12.8 175.08, 0.04 163.21, 0 132 M44 176.01 C15.2 176.41, 1.58 162.9, 0 132 M0 132 C1.37 112.61, -0.31 94.2, 0 44 M0 132 C-0.75 113.27, -1.32 96.71, 0 44 M0 44 C0.77 12.77, 13.16 0.25, 44 0 M0 44 C1.35 14.21, 13.7 1.44, 44 0" stroke="#000000" stroke-width="1" fill="none"></path></g><g stroke-linecap="round"><g transform="translate(19.970843035393045 833.5273695775195) rotate(0 158.84625841537036 -1.3096327389184808)"><path d="M1.07 -1.19 C53.94 -1.49, 264.71 -1.49, 317.53 -1.55 M0.17 0.8 C52.88 0.11, 263.79 -2.68, 316.69 -3.42" stroke="#000000" stroke-width="1" fill="none"></path></g></g><mask></mask><g transform="translate(89.9519692227268 778.3395536511798) rotate(0 81.62872314453125 21.343644306813985)"><text x="0" y="0" font-family="Virgil, Segoe UI Emoji" font-size="34.14983089090238px" fill="#1e1e1e" text-anchor="start" style="white-space: pre;" direction="ltr" dominant-baseline="text-before-edge">ciudadano</text></g><g stroke-linecap="round" transform="translate(469.5695848327432 140.37761577063884) rotate(0 159.09533227429438 88.00254365106957)"><path d="M44 0 M44 0 C125.15 -2.2, 208.78 -1.76, 274.19 0 M44 0 C130.52 -1.82, 215.92 -1.7, 274.19 0 M274.19 0 C302.41 -0.04, 316.72 15.83, 318.19 44 M274.19 0 C301.55 -1.47, 320.02 14.41, 318.19 44 M318.19 44 C317.73 63.71, 319.49 79.93, 318.19 132 M318.19 44 C317.98 64.36, 319.33 85.12, 318.19 132 M318.19 132 C318.76 163, 304.7 174.87, 274.19 176.01 M318.19 132 C316 162.24, 302.88 177.73, 274.19 176.01 M274.19 176.01 C184.18 175.75, 90.85 174.3, 44 176.01 M274.19 176.01 C222.61 178.56, 170.72 177.57, 44 176.01 M44 176.01 C13.17 176.21, 1.05 162.74, 0 132 M44 176.01 C15.51 177.85, 2.08 162.88, 0 132 M0 132 C0.61 100.38, -0.7 67.04, 0 44 M0 132 C-0.52 99.17, -0.57 66.52, 0 44 M0 44 C1.86 14.12, 16.11 -0.63, 44 0 M0 44 C-0.63 14.26, 16.62 0.97, 44 0" stroke="#000000" stroke-width="1" fill="none"></path></g><g stroke-linecap="round"><g transform="translate(471.35567266458565 208.28372845523245) rotate(0 158.41905870085156 -1.4956513549914234)"><path d="M-0.4 -0.16 C52.31 -0.2, 264.42 -0.95, 317.24 -1.16 M1.59 -1.29 C54.04 -1.57, 263.34 -2.47, 316.25 -2.83" stroke="#000000" stroke-width="1" fill="none"></path></g></g><mask></mask><g transform="translate(513.1549806701005 153.0959125288955) rotate(0 114.43724822998047 21.343644306813985)"><text x="0" y="0" font-family="Virgil, Segoe UI Emoji" font-size="34.14983089090238px" fill="#1e1e1e" text-anchor="start" style="white-space: pre;" direction="ltr" dominant-baseline="text-before-edge">departamento</text></g><g stroke-linecap="round" transform="translate(479.2907272813127 765.3022325405755) rotate(0 159.09533227429438 88.00254365106957)"><path d="M44 0 M44 0 C118.82 0.14, 194.23 0.56, 274.19 0 M44 0 C121.32 1.39, 199.03 0.09, 274.19 0 M274.19 0 C304.09 1.86, 318.35 14.98, 318.19 44 M274.19 0 C305.02 2.16, 319.16 16.6, 318.19 44 M318.19 44 C317.07 76.45, 317.17 108.29, 318.19 132 M318.19 44 C317.75 74.26, 317.23 104.47, 318.19 132 M318.19 132 C318.35 162.34, 305.25 176.34, 274.19 176.01 M318.19 132 C317.24 161.51, 305.57 174.56, 274.19 176.01 M274.19 176.01 C220 174.47, 166.81 176.96, 44 176.01 M274.19 176.01 C183.3 177.14, 92.37 177.47, 44 176.01 M44 176.01 C13.84 174.61, 1.4 160.83, 0 132 M44 176.01 C14.36 174.7, -0.82 163.38, 0 132 M0 132 C0.6 98.29, 0.76 68.92, 0 44 M0 132 C0.64 113.99, 0.41 95.76, 0 44 M0 44 C-1.63 15.74, 14.48 1.15, 44 0 M0 44 C-0.82 14.17, 13.76 1.89, 44 0" stroke="#000000" stroke-width="1" fill="none"></path></g><g stroke-linecap="round"><g transform="translate(481.07681511315513 833.2083452251691) rotate(0 159.176296395897 -1.2218643877808972)"><path d="M0.87 -1.05 C53.84 -1.19, 265.75 -1.34, 318.49 -1.57 M-0.14 1.01 C52.72 0.57, 265.38 -3.06, 318.15 -3.45" stroke="#000000" stroke-width="1" fill="none"></path></g></g><mask></mask><g transform="translate(495.60339584594203 780.8818911392354) rotate(0 140.98110961914062 21.343644306813985)"><text x="0" y="0" font-family="Virgil, Segoe UI Emoji" font-size="34.14983089090238px" fill="#1e1e1e" text-anchor="start" style="white-space: pre;" direction="ltr" dominant-baseline="text-before-edge">cargo_candidato</text></g><g stroke-linecap="round" transform="translate(21.835617052749058 456.83354185604185) rotate(0 159.09533227429415 88.00254365106957)"><path d="M44 0 M44 0 C120.24 1.67, 200.22 0.53, 274.19 0 M44 0 C100.43 -0.08, 156.43 -0.17, 274.19 0 M274.19 0 C301.53 -1.06, 319.72 14.91, 318.19 44 M274.19 0 C304.94 0.6, 318.31 13.22, 318.19 44 M318.19 44 C318.76 64.22, 319.72 80.17, 318.19 132 M318.19 44 C317.66 77.42, 317.06 110.52, 318.19 132 M318.19 132 C316.27 161.86, 305.5 177.1, 274.19 176.01 M318.19 132 C320.31 162.74, 301.55 176.95, 274.19 176.01 M274.19 176.01 C189.41 178.76, 106.81 176.19, 44 176.01 M274.19 176.01 C224.85 176.99, 177.02 175.91, 44 176.01 M44 176.01 C15 177.63, -1.31 160.3, 0 132 M44 176.01 C16.69 174.84, 1.37 161.56, 0 132 M0 132 C0.77 105.64, 1.27 75.5, 0 44 M0 132 C0.23 106.12, -0.28 82.98, 0 44 M0 44 C1.4 12.83, 14.53 -1.96, 44 0 M0 44 C-1.67 16.41, 14.22 1.34, 44 0" stroke="#000000" stroke-width="1" fill="none"></path></g><g stroke-linecap="round"><g transform="translate(23.62170488459151 524.7396545406355) rotate(0 158.4806956989462 -0.8549966865930401)"><path d="M0.75 1.01 C53.69 0.69, 264.56 -2.24, 317.27 -2.72 M-0.31 0.5 C52.5 0.39, 263.57 -1.39, 316.29 -1.55" stroke="#000000" stroke-width="1" fill="none"></path></g></g><mask></mask><g transform="translate(140.87555834465138 469.5518386142976) rotate(0 37.48571014404297 21.343644306813985)"><text x="0" y="0" font-family="Virgil, Segoe UI Emoji" font-size="34.14983089090238px" fill="#1e1e1e" text-anchor="start" style="white-space: pre;" direction="ltr" dominant-baseline="text-before-edge">voto</text></g><g stroke-linecap="round"><g transform="translate(343.8451801768824 515.7268365536647) rotate(0 66.56293222329577 -0.8422006612699988)"><path d="M-0.63 0.11 C21.54 0.04, 111.48 0.23, 133.76 0.21 M1.24 -0.88 C23.2 -1.4, 111.14 -2.16, 132.93 -1.8" stroke="#1e1e1e" stroke-width="4" fill="none"></path></g></g><mask></mask><g stroke-linecap="round" transform="translate(480.12035016964137 452.76061343595575) rotate(0 159.09533227429415 88.00254365106957)"><path d="M44 0 M44 0 C111.56 -0.24, 174.78 -1.73, 274.19 0 M44 0 C133.95 1.45, 225.7 2.62, 274.19 0 M274.19 0 C303.08 0.39, 319.68 14.11, 318.19 44 M274.19 0 C303.64 -1, 317.57 15.34, 318.19 44 M318.19 44 C318.64 63.77, 316.33 79.29, 318.19 132 M318.19 44 C318.1 76.1, 317.36 109.23, 318.19 132 M318.19 132 C316.63 160.77, 304.53 175.87, 274.19 176.01 M318.19 132 C316.37 160.07, 304.48 173.85, 274.19 176.01 M274.19 176.01 C190.57 174.2, 104.81 176.29, 44 176.01 M274.19 176.01 C226.84 176.04, 180.27 175.57, 44 176.01 M44 176.01 C13.39 175.21, 1.48 159.66, 0 132 M44 176.01 C14.29 174.92, -1.12 162.57, 0 132 M0 132 C0.13 111.53, -2.21 91.53, 0 44 M0 132 C0.33 105.92, 0.66 80.47, 0 44 M0 44 C-0.46 13.58, 12.75 1.77, 44 0 M0 44 C1.08 16.45, 15.6 -0.57, 44 0" stroke="#000000" stroke-width="1" fill="none"></path></g><g stroke-linecap="round"><g transform="translate(481.9064380014838 520.6667261205512) rotate(0 158.5212589640314 -0.7817721790975156)"><path d="M0.88 -1.13 C53.59 -1.45, 264.37 -0.58, 317.16 -0.92 M-0.11 0.89 C52.34 0.18, 263.27 -1.91, 316.12 -2.45" stroke="#000000" stroke-width="1" fill="none"></path></g></g><mask></mask><g transform="translate(546.8488613747136 468.0720938083523) rotate(0 81.57751464843773 21.343644306813985)"><text x="0" y="0" font-family="Virgil, Segoe UI Emoji" font-size="34.14983089090238px" fill="#1e1e1e" text-anchor="start" style="white-space: pre;" direction="ltr" dominant-baseline="text-before-edge">candidato</text></g><g stroke-linecap="round"><g transform="translate(180.0659166878313 634.649359087116) rotate(0 0.07750397623135541 63.123586807840184)"><path d="M0.39 -0.19 C0.67 21.16, 1.12 106.46, 1 127.59 M-0.86 -1.34 C-0.59 19.68, 0.64 104.15, 0.58 125.63" stroke="#1e1e1e" stroke-width="4" fill="none"></path></g></g><mask></mask><g stroke-linecap="round"><g transform="translate(175.8156926227066 325.3352870345925) rotate(0 0.5757771169796797 64.1806808730239)"><path d="M-0.39 0.88 C-0.5 22.06, -0.85 106.92, -0.62 128.07 M1.6 0.29 C1.9 21.06, 1.9 105.47, 1.76 126.37" stroke="#1e1e1e" stroke-width="4" fill="none"></path></g></g><mask></mask><g stroke-linecap="round"><g transform="translate(331.44347699470654 227.4070079826888) rotate(0 67.14008334565892 0.5794913442341567)"><path d="M-0.8 -0.79 C21.47 -0.65, 110.46 -0.11, 132.77 0.13 M0.98 1.41 C23.71 1.83, 113.24 2.19, 135.08 1.73" stroke="#1e1e1e" stroke-width="4" fill="none"></path></g></g><mask></mask><g stroke-linecap="round"><g transform="translate(801.9728948281081 529.0582931778645) rotate(0 66.19603182743276 0.013550476147429436)"><path d="M0.13 0.56 C22.53 0.51, 111.52 0.92, 133.65 0.88 M-1.25 -0.2 C21.06 -0.06, 110.58 -1.12, 132.76 -0.79" stroke="#1e1e1e" stroke-width="4" fill="none"></path></g></g><mask></mask><g stroke-linecap="round"><g transform="translate(642.5110283729941 629.3119312397193) rotate(0 -0.21781574341230225 63.71246168386415)"><path d="M0.78 -0.6 C0.88 20.93, -0.05 106.52, -0.18 128.03 M-0.27 1.69 C-0.28 22.99, -1.15 105.47, -1.22 126.31" stroke="#1e1e1e" stroke-width="4" fill="none"></path></g></g><mask></mask></svg>